<?xml version="1.0" encoding="UTF-8"?>
<svg version="1.1" xmlns="http://www.w3.org/2000/svg" width="1380" height="1380">
<path d="M0 0 C455.4 0 910.8 0 1380 0 C1380 455.4 1380 910.8 1380 1380 C924.6 1380 469.2 1380 0 1380 C0 924.6 0 469.2 0 0 Z " fill="#000000" transform="translate(0,0)"/>
<path d="M0 0 C36.63 0 73.26 0 111 0 C111 147.51 111 295.02 111 447 C147.96 447 184.92 447 223 447 C223 373.08 223 299.16 223 223 C259.63 223 296.26 223 334 223 C334 332.56 334 442.12 334 555 C311.02637311 558.44604403 311.02637311 558.44604403 299.67425537 558.36076355 C297.7298909 558.36461563 297.7298909 558.36461563 295.74624634 558.36854553 C292.21270284 558.37514967 288.67944157 558.36340966 285.14593381 558.34821819 C281.25274946 558.33494006 277.35957428 558.33951357 273.46637344 558.34167194 C265.93894275 558.34325482 258.41162106 558.32952197 250.88421823 558.31016796 C242.16124589 558.28841917 233.43833739 558.28617563 224.71533203 558.28381348 C201.72687096 558.26811445 178.7384338 558.22623069 155.75 558.1875 C104.3525 558.125625 52.955 558.06375 0 558 C0 373.86 0 189.72 0 0 Z " fill="#FEFEFE" transform="translate(402,411)"/>
<path d="M0 0 C13.90125 -0.04125 27.8025 -0.0825 42.125 -0.125 C46.46672363 -0.14320801 50.80844727 -0.16141602 55.28173828 -0.18017578 C60.70483398 -0.18920898 60.70483398 -0.18920898 63.26705933 -0.19088745 C65.00526971 -0.19389995 66.74347672 -0.20080658 68.48165894 -0.21115112 C85.70645185 -0.30827203 103.06279002 0.44816375 120 3.8125 C120.89041992 3.98281738 121.78083984 4.15313477 122.69824219 4.32861328 C125.46937583 4.8681733 128.23503195 5.42973754 131 6 C132.3931543 6.28447998 132.3931543 6.28447998 133.81445312 6.57470703 C172.52144313 14.59296567 209.54000134 30.91489717 241 55 C242.03382813 55.76828125 243.06765625 56.5365625 244.1328125 57.328125 C251.31076894 62.69771467 257.97171116 68.45238448 264.49414062 74.59570312 C266.03771064 76.03516725 267.60089008 77.44991117 269.171875 78.859375 C274.83462288 83.94736228 280.15118393 89.11676984 285 95 C285.74507812 95.86882812 286.49015625 96.73765625 287.2578125 97.6328125 C305.33917701 118.88833504 322.74740128 143.75721758 332.00390625 170.23828125 C332.96472398 172.90219551 334.11447309 175.34186446 335.375 177.875 C342.90484836 194.21335023 346.54624488 212.44311134 350 230 C350.35384766 231.73830078 350.35384766 231.73830078 350.71484375 233.51171875 C353.65251038 249.22930735 353.2404096 265.63008175 353.25 281.5625 C353.25067474 282.57779785 353.25134949 283.5930957 353.25204468 284.63916016 C353.22790658 307.54824442 350.62488515 328.76487708 345 351 C344.70867187 352.16660156 344.41734375 353.33320312 344.1171875 354.53515625 C342.73362609 359.82909913 340.95920503 364.89241541 339 370 C338.66919434 370.86834473 338.33838867 371.73668945 337.99755859 372.63134766 C323.16408211 411.30457696 302.89024955 446.02788098 273 475 C270.5767207 477.40443576 268.17273213 479.81892482 265.81640625 482.2890625 C256.4619205 491.98400613 245.79982028 499.80466022 234.875 507.625 C234.1523999 508.14626465 233.4297998 508.6675293 232.68530273 509.20458984 C232.00282471 509.68621582 231.32034668 510.1678418 230.6171875 510.6640625 C230.01503418 511.09154785 229.41288086 511.5190332 228.79248047 511.95947266 C226.87022451 513.07533412 225.15428806 513.50367627 223 514 C222.81243205 493.71040173 222.67171086 473.4209814 222.58550262 453.13069344 C222.54439582 443.70776365 222.48843622 434.28537513 222.39648438 424.86279297 C222.31630042 416.64212457 222.26502958 408.42184847 222.24729204 400.20079982 C222.23693669 395.85473751 222.21291249 391.50979666 222.15415955 387.16409683 C221.72174889 353.90462141 221.72174889 353.90462141 231 338 C238.81400112 319.04867809 241.43723774 298.83041964 241.375 278.5 C241.3737915 277.76154846 241.37258301 277.02309692 241.37133789 276.26226807 C241.17530537 231.81428545 223.12107614 191.53860367 192 160 C158.20735199 126.54722057 113.55611514 113.1004064 66.9921875 112.68359375 C65.27481659 112.66515743 63.55744994 112.64631909 61.84008789 112.6270752 C55.51844235 112.55902628 49.19671537 112.49871923 42.875 112.4375 C21.651875 112.2209375 21.651875 112.2209375 0 112 C0 75.04 0 38.08 0 0 Z " fill="#FEFEFE" transform="translate(625,411)"/>
<path d="M0 0 C1.98 1.65 3.96 3.3 6 5 C5.01 5.66 4.02 6.32 3 7 C3 6.34 3 5.68 3 5 C2.34 5 1.68 5 1 5 C0.34 3.68 -0.32 2.36 -1 1 C-0.67 0.67 -0.34 0.34 0 0 Z " fill="#E5E5E5" transform="translate(906,503)"/>
</svg>
