<?xml version="1.0" encoding="UTF-8"?>
<svg version="1.1" xmlns="http://www.w3.org/2000/svg" width="1380" height="1380">
<path d="M0 0 C455.4 0 910.8 0 1380 0 C1380 455.4 1380 910.8 1380 1380 C924.6 1380 469.2 1380 0 1380 C0 924.6 0 469.2 0 0 Z " fill="#FEFEFE" transform="translate(0,0)"/>
<path d="M0 0 C36.63 0 73.26 0 111 0 C111 147.51 111 295.02 111 447 C147.96 447 184.92 447 223 447 C223 373.08 223 299.16 223 223 C259.63 223 296.26 223 334 223 C334 332.89 334 442.78 334 556 C311.02637311 558.29736269 311.02637311 558.29736269 299.67425537 558.24050903 C298.37801239 558.24222107 297.08176941 558.24393311 295.74624634 558.24569702 C292.21276172 558.2500997 288.67940254 558.242273 285.14593381 558.23214546 C281.2527481 558.22329337 277.35956648 558.22634238 273.46637344 558.2277813 C265.9389681 558.22883655 258.41161119 558.2196813 250.88421823 558.20677864 C242.1612516 558.19227945 233.43831334 558.19078375 224.71533203 558.18920898 C201.72688044 558.17874297 178.73843947 558.15082046 155.75 558.125 C104.3525 558.08375 52.955 558.0425 0 558 C0 373.86 0 189.72 0 0 Z " fill="#000000" transform="translate(402,411)"/>
<path d="M0 0 C14.004375 -0.04125 28.00875 -0.0825 42.4375 -0.125 C46.80411865 -0.14320801 51.1707373 -0.16141602 55.66967773 -0.18017578 C105.88127047 -0.30599498 105.88127047 -0.30599498 127.5 4.875 C128.66724609 5.14038574 129.83449219 5.40577148 131.03710938 5.67919922 C133.32729287 6.2022619 135.61582779 6.73261541 137.90234375 7.27148438 C140.63919747 7.91514543 143.37960126 8.53469831 146.125 9.140625 C158.59489638 11.92113855 170.28311415 15.91633955 182 21 C183.35153461 21.57037858 184.70309891 22.14068684 186.0546875 22.7109375 C214.82340095 35.00042256 241.42848823 52.01825533 264.25 73.4375 C266.72679294 75.74542069 269.25228742 77.97326209 271.8125 80.1875 C275.21253125 83.19756351 278.21515604 86.36306921 281.140625 89.83203125 C283.25134007 92.29305408 285.46855249 94.6361849 287.6875 97 C309.11325449 120.56832994 325.58114536 149.39371291 337 179 C337.44472656 180.11246094 337.88945313 181.22492188 338.34765625 182.37109375 C344.30489461 198.02081639 348.43686696 214.59802631 351.375 231.0625 C351.5304126 231.91577881 351.6858252 232.76905762 351.84594727 233.64819336 C354.3423204 248.68203384 354.23822531 264.11345902 354.25 279.3125 C354.25100708 280.22531738 354.25201416 281.13813477 354.25305176 282.07861328 C354.23732167 303.30497734 352.94021709 324.33928058 347.53271484 344.95507812 C346.99986116 347.00053295 346.50833341 349.05300133 346.01953125 351.109375 C338.4129427 381.83444514 323.97937535 411.09290557 306 437 C305.60296875 437.57556641 305.2059375 438.15113281 304.796875 438.74414062 C297.96063157 448.58981731 290.26232122 457.74398925 282.1875 466.58984375 C280.06733383 468.92581254 278.0030269 471.30326875 275.9375 473.6875 C272.86668594 477.14595134 269.64407897 480.21689446 266.11328125 483.19921875 C263.78954831 485.17933129 261.55646028 487.24254634 259.3125 489.3125 C250.992988 496.79498793 242.08611492 503.38342289 232.8125 509.625 C232.16450439 510.06320068 231.51650879 510.50140137 230.84887695 510.95288086 C226.24656618 514 226.24656618 514 224 514 C223.81243205 493.71040173 223.67171086 473.4209814 223.58550262 453.13069344 C223.54439582 443.70776365 223.48843622 434.28537513 223.39648438 424.86279297 C223.31630042 416.64212457 223.26502958 408.42184847 223.24729204 400.20079982 C223.23693669 395.85473751 223.21291249 391.50979666 223.15415955 387.16409683 C222.72174889 353.90462141 222.72174889 353.90462141 232 338 C239.72402815 319.26688982 242.43890253 299.18203378 242.375 279.0625 C242.3737915 278.34933624 242.37258301 277.63617249 242.37133789 276.90139771 C242.16733852 232.14530482 224.35746601 191.778165 193 160 C170.33589515 137.56383873 140.09574472 122.26818183 109 115.625 C108.27200195 115.46942627 107.54400391 115.31385254 106.79394531 115.15356445 C93.86978096 112.60917415 80.69240659 112.80027579 67.578125 112.68359375 C65.84293196 112.6651483 64.10774306 112.64630954 62.37255859 112.6270752 C55.99842122 112.55913653 49.62420506 112.49875961 43.25 112.4375 C28.9775 112.293125 14.705 112.14875 0 112 C0 75.04 0 38.08 0 0 Z " fill="#010101" transform="translate(624,411)"/>
<path d="M0 0 C0.99 0.33 1.98 0.66 3 1 C2.34 1.66 1.68 2.32 1 3 C0.21625 3.804375 -0.5675 4.60875 -1.375 5.4375 C-3.50395534 7.51576593 -5.57494275 9.29347823 -8 11 C-6.63629701 8.00779732 -5.05091917 5.70973471 -2.875 3.25 C-2.33617187 2.63640625 -1.79734375 2.0228125 -1.2421875 1.390625 C-0.62730469 0.70226562 -0.62730469 0.70226562 0 0 Z " fill="#E3E3E3" transform="translate(919,862)"/>
<path d="M0 0 C1.32 1.32 2.64 2.64 4 4 C3.01 4.66 2.02 5.32 1 6 C0.01 4.68 -0.98 3.36 -2 2 C-1.34 1.34 -0.68 0.68 0 0 Z " fill="#F4F4F4" transform="translate(817,571)"/>
</svg>
